<?xml version="1.0" encoding="UTF-8" standalone="no"?>
<!-- Created with Inkscape (http://www.inkscape.org/) -->

<svg
   width="132.29167mm"
   height="132.29167mm"
   viewBox="0 0 132.29167 132.29167"
   version="1.1"
   id="svg3439"
   xmlns:inkscape="http://www.inkscape.org/namespaces/inkscape"
   xmlns:sodipodi="http://sodipodi.sourceforge.net/DTD/sodipodi-0.dtd"
   xmlns:xlink="http://www.w3.org/1999/xlink"
   xmlns="http://www.w3.org/2000/svg"
   xmlns:svg="http://www.w3.org/2000/svg">
  <sodipodi:namedview
     id="namedview3441"
     pagecolor="#ffffff"
     bordercolor="#666666"
     borderopacity="1.0"
     inkscape:showpageshadow="2"
     inkscape:pageopacity="0.0"
     inkscape:pagecheckerboard="0"
     inkscape:deskcolor="#d1d1d1"
     inkscape:document-units="mm"
     showgrid="false"
     inkscape:zoom="0.84096521"
     inkscape:cx="501.2098"
     inkscape:cy="538.0722"
     inkscape:window-width="1920"
     inkscape:window-height="991"
     inkscape:window-x="-9"
     inkscape:window-y="-9"
     inkscape:window-maximized="1"
     inkscape:current-layer="layer1" />
  <defs
     id="defs3436">
    <linearGradient
       inkscape:collect="always"
       xlink:href="#linearGradient12646"
       id="linearGradient13384"
       x1="76.332176"
       y1="-26.940769"
       x2="208.62384"
       y2="105.3509"
       gradientUnits="userSpaceOnUse" />
    <linearGradient
       inkscape:collect="always"
       id="linearGradient12646">
      <stop
         style="stop-color:#0221c7;stop-opacity:1;"
         offset="0"
         id="stop12642" />
      <stop
         style="stop-color:#02c7a8;stop-opacity:1;"
         offset="1"
         id="stop12644" />
    </linearGradient>
    <filter
       inkscape:collect="always"
       style="color-interpolation-filters:sRGB"
       id="filter9130"
       x="-0.31290302"
       y="-0.31290051"
       width="1.625806"
       height="1.625801">
      <feGaussianBlur
         inkscape:collect="always"
         stdDeviation="8.2788255"
         id="feGaussianBlur9132" />
    </filter>
    <filter
       inkscape:collect="always"
       style="color-interpolation-filters:sRGB"
       id="filter9108"
       x="-0.16399726"
       y="-0.16399606"
       width="1.3279945"
       height="1.3279921">
      <feGaussianBlur
         inkscape:collect="always"
         stdDeviation="4.3390622"
         id="feGaussianBlur9110" />
    </filter>
    <linearGradient
       inkscape:collect="always"
       xlink:href="#linearGradient8937"
       id="linearGradient10655"
       gradientUnits="userSpaceOnUse"
       x1="-81.752632"
       y1="-37.677753"
       x2="-22.076464"
       y2="54.816982"
       gradientTransform="translate(161.27043)" />
    <linearGradient
       inkscape:collect="always"
       id="linearGradient8937">
      <stop
         style="stop-color:#000000;stop-opacity:1;"
         offset="0"
         id="stop8933" />
      <stop
         style="stop-color:#000000;stop-opacity:0;"
         offset="1"
         id="stop8935" />
    </linearGradient>
  </defs>
  <g
     inkscape:label="Layer 1"
     inkscape:groupmode="layer"
     id="layer1"
     transform="translate(-36.734464,-64.735518)">
    <g
       id="g1891"
       transform="translate(-39.597715,91.67629)">
      <rect
         style="opacity:1;fill:url(#linearGradient13384);fill-opacity:1;stroke:none;stroke-width:21.1667;stroke-linecap:butt;stroke-dasharray:none;stroke-opacity:1"
         id="rect10666"
         width="132.29167"
         height="132.29167"
         x="76.332176"
         y="-26.940769"
         ry="66.145836" />
      <g
         id="g10664"
         transform="translate(21.836446,5.6063929)">
        <path
           id="path10641"
           style="opacity:0.444149;fill:#0284c7;fill-opacity:1;stroke:none;stroke-width:2.64583;stroke-linecap:round;stroke-dasharray:none;filter:url(#filter9130)"
           d="M 88.891822,1.8486753 V 23.015342 H 110.05849 V 1.8486753 Z m 42.333848,0 c 0,11.8153407 -9.35081,21.1661517 -21.16615,21.1661507 v 21.168217 c 11.81534,0 21.16615,9.350293 21.16615,21.165633 h 21.16564 c 0,-12.600147 -5.60236,-23.972304 -14.43375,-31.75 8.83124,-7.77769 14.43375,-19.149976 14.43375,-31.7500007 z M 88.891822,44.182009 V 65.348676 H 110.05849 V 44.182009 Z"
           inkscape:export-filename="Kyaw's Logo Plain.png"
           inkscape:export-xdpi="96"
           inkscape:export-ydpi="96" />
        <path
           id="path10643"
           style="opacity:0.343085;mix-blend-mode:normal;fill:#000000;fill-opacity:1;stroke:none;stroke-width:2.64583;stroke-linecap:round;stroke-dasharray:none;filter:url(#filter9108)"
           d="M 95.623959,7.8518572 V 29.018524 H 116.79063 V 7.8518572 Z m 42.333851,0 c 0,11.8153408 -9.35081,21.1661518 -21.16615,21.1661508 v 21.168217 c 11.81534,0 21.16615,9.350293 21.16615,21.165633 h 21.16563 c 0,-0.363354 -0.005,-0.725497 -0.0139,-1.086756 -0.31179,-12.166218 -5.84308,-23.109836 -14.41979,-30.663244 8.83123,-7.77769 14.43374,-19.149976 14.43374,-31.7500008 z M 95.623959,50.185191 V 71.351858 H 116.79063 V 50.185191 Z" />
        <rect
           style="opacity:1;fill:#0284c7;fill-opacity:1;stroke:none;stroke-width:2.64583;stroke-linecap:round;stroke-dasharray:none"
           id="rect10645"
           width="21.166666"
           height="21.166666"
           x="92.21418"
           y="4.4979172" />
        <rect
           style="opacity:1;fill:#0284c7;fill-opacity:1;stroke:none;stroke-width:2.64583;stroke-linecap:round;stroke-dasharray:none"
           id="rect10647"
           width="21.166666"
           height="21.166666"
           x="92.21418"
           y="46.831249" />
        <path
           style="color:#000000;fill:#0284c7"
           d="m 113.38176,25.664062 v 21.167969 c 11.81535,0 21.16602,9.350664 21.16602,21.166016 h 21.16601 c 0,-23.254675 -19.07735,-42.333985 -42.33203,-42.333985 z"
           id="path10649" />
        <path
           style="color:#000000;fill:url(#linearGradient10655);fill-opacity:1"
           d="m 113.38176,25.664062 v 21.167969 c 11.81535,0 21.16602,9.350664 21.16602,21.166016 h 21.16601 c 0,-23.254675 -19.07735,-42.333985 -42.33203,-42.333985 z"
           id="path10651" />
        <path
           style="color:#000000;fill:#0284c7;fill-opacity:1"
           d="m 134.54778,4.4980469 c 0,11.8153521 -9.35067,21.1660161 -21.16602,21.1660151 v 21.167969 c 23.25468,0 42.33203,-19.079309 42.33203,-42.3339841 z"
           id="path10653" />
      </g>
    </g>
  </g>
</svg>
